#!OML:ASF F:\VICON\USERDATA\INSTALL\rory3\rory3.ASF
:FULLY-SPECIFIED
:DEGREES
57
root 0.29337024554165997 17.42390881776808 25.713455407249732 2.431581040974155 0.33362222531610547 -3.6711754252817617
lfemur -30.500215316555767 3.4998881038796026 -16.453220774973975
ltibia 80.40787055956116
lfoot 4.923437695718096 -10.790618975476878
ltoes -11.175495368581846
rfemur -15.842347619565947 4.04516790224203 31.698764276786545
rtibia 54.61065113006781
rfoot -17.505722727240208 -11.969125994953455
rtoes -2.027462215508028
lowerback 14.94041129757433 1.054738021480623 4.123638531565845
upperback 0.13247262691695982 2.235909294618656 2.78926296987229
thorax -8.435422361148566 0.8437951323968742 0.3080691477068753
lowerneck -18.77412381496472 -4.432233017833069 -2.108979321609811
upperneck 13.479756352108554 -6.116980916838594 2.666059454080772
head 7.393034993152217 -2.663942551772073 0.5441037974158361
lclavicle 3.0724525846122443e-16 -4.306739325979878e-16
lhumerus -55.61015128980536 -12.509417271503896 98.84211097482881
lradius 107.07939146980664
lwrist 31.684268573823417
lhand -25.693924994999612 3.170204381332194
lfingers 7.125020000000001
lthumb 0.8139528244953294 33.502061960921175
rclavicle 3.0723791498936716e-16 -4.3067812433940977e-16
rhumerus -38.527946917326055 7.8283387325796125 -94.92548089641792
rradius 104.53306153396504
rwrist -19.591137387492697
rhand -18.522568422244664 37.58371438768391
rfingers 7.125020000000001
rthumb 7.756235589824056 7.3710701195614625
58
root 0.3326383150764588 17.588389719947283 26.834282103203293 2.535307122161899 1.1179072825652911 -3.528519317811056
lfemur -33.747265927713464 2.644183499550556 -17.688562507909452
ltibia 75.1175443051783
lfoot 4.514235689007787 -10.574633944088285
ltoes -11.274976732075686
rfemur -13.066824665128257 3.9460620928360237 31.96154642157363
rtibia 52.79556088265303
rfoot -16.23712647802966 -10.821906505007941
rtoes -1.4783411905232402
lowerback 14.747292509793821 1.2323033872841567 4.567576627182496
upperback 0.06984818401003512 2.6151164610390047 2.790376079653987
thorax -8.4722054926032 1.0163255055245342 -0.02268015110860752
lowerneck -18.536876749473798 -4.548841983288529 -2.13559495686337
upperneck 13.547132049781718 -6.248493640460262 2.7386739238908664
head 7.39485840095608 -2.71404121871395 0.5620552713078084
lclavicle 3.0724525846122443e-16 -4.306739325979878e-16
lhumerus -55.391162024159016 -12.124094487925433 98.89042854662726
lradius 108.32107534639879
lwrist 31.7713860460906
lhand -25.678733008887495 2.9956700301325476
lfingers 7.125020000000001
lthumb 0.8454577258274425 33.26740338258837
rclavicle 3.0723791498936706e-16 -4.306781243394098e-16
rhumerus -37.23653249851958 8.283017419583233 -94.8805801183019
rradius 104.64382483131178
rwrist -19.630842867632083
rhand -18.45730073643093 37.676238826898924
rfingers 7.125020000000001
rthumb 7.798615100295203 7.36739543339032
59
root 0.3649847336479883 17.743905157463903 27.239437489981178 2.5539062531194383 1.6674316782829863 -3.413861834871548
lfemur -32.874807587549796 1.9681622640476104 -18.33249793729599
ltibia 68.97121549765778
lfoot 2.6566741877221975 -10.670053889548807
ltoes -11.456628643791625
rfemur -9.67533880808002 3.8560799170256184 32.18681566816601
rtibia 50.72470594413449
rfoot -14.959435269822553 -9.593664659166832
rtoes -1.142327501531729
lowerback 14.479932999525102 1.3732951994751432 4.957410872347256
upperback 0.004935394160272 2.9881478994322115 2.7664217107142264
thorax -8.452188739193636 1.2492350900964153 -0.10704937123901007
lowerneck -18.375451920285148 -4.616348961766945 -2.1557905665324326
upperneck 13.666996762505061 -6.323509124378597 2.8187760050999264
head 7.395689256644856 -2.7510022449879785 0.5814042004395981
lclavicle 3.0724525846122443e-16 -4.306739325979878e-16
lhumerus -57.06672376361118 -12.338932529633476 98.46905369196192
lradius 109.33303770093073
lwrist 31.85365253042468
lhand -25.717471551302754 2.731982958208777
lfingers 7.125020000000001
lthumb 0.921618611106827 33.031456269904304
rclavicle 3.0723791498936706e-16 -4.306781243394098e-16
rhumerus -36.47555954503033 8.655186473256462 -94.8515008362686
rradius 104.60849757314755
rwrist -19.56040372738326
rhand -18.50985615010388 37.61137148659921
rfingers 7.125020000000001
rthumb 7.822350900669554 7.377379686642888
60
root 0.39248060172170485 17.877391176175895 27.312869863705806 2.554998171590314 2.0696620100997847 -3.3502807207729335
lfemur -32.743952096367984 1.3057955111732849 -18.90844142874566
ltibia 62.21478975090901
lfoot 1.9936538185879826 -10.540985498627393
ltoes -11.759117262764622
rfemur -7.930853165905143 3.626372299844695 32.16641196424207
rtibia 48.15904023045635
rfoot -13.106604137017088 -8.675500899586286
rtoes -1.6949080601053357
lowerback 14.110579810641648 1.4608944855798915 5.223414825729
upperback -0.07664195387820932 3.3877586745720905 2.7205896556813904
thorax -8.498579708934715 1.324692638627234 -0.4205415960900204
lowerneck -18.283987486113695 -4.689952975085367 -2.1891574430127907
upperneck 13.754349308139084 -6.3503940278879565 2.9041185862257035
head 7.3892772645474105 -2.8094343847629544 0.5931499212622641
lclavicle 3.0724525846122443e-16 -4.306739325979878e-16
lhumerus -57.03495910230559 -11.872195048348416 98.2843106672631
lradius 109.83941597595845
lwrist 31.880833774294565
lhand -25.761958846864392 2.525689442594596
lfingers 7.125020000000001
lthumb 0.8643450555601194 32.73101235546554
rclavicle 3.0723791498936716e-16 -4.3067812433940977e-16
rhumerus -35.88469740542938 9.008033362780852 -94.7908475958528
rradius 104.40694815035279
rwrist -19.47855685465696
rhand -18.456945629895543 37.651162839229976
rfingers 7.125020000000001
rthumb 7.788213965725187 7.318157262929068
61
root 0.4198150877231782 18.002630074080834 27.734081155524045 2.611494282223789 2.2928412878200906 -3.241470225068001
lfemur -31.73807798181913 0.824748698161149 -19.43301638629006
ltibia 54.949802457162995
lfoot 2.2492684268727063 -10.211433877042476
ltoes -11.466354804408084
rfemur -7.246389020042038 3.2862594133281946 31.602479707303974
rtibia 45.56930805262329
rfoot -9.377839345310866 -7.796340965962472
rtoes -2.1279787970140362
lowerback 13.686556069144018 1.526541640031546 5.381399025206343
upperback -0.21148674113464344 3.608768830592612 2.5795152769734546
thorax -8.472967847414008 1.375978224354717 -0.6978892154147126
lowerneck -18.169044884339957 -4.6823519862668554 -2.1989617372359906
upperneck 13.834243533646244 -6.3672267186648135 2.9766489965397804
head 7.386228458855694 -2.859024489026856 0.6077686469402591
lclavicle 3.0724525846122443e-16 -4.306739325979878e-16
lhumerus -57.69382751587074 -11.821347301316472 98.0368674009288
lradius 110.67653739512802
lwrist 31.75949466850525
lhand -25.837734148095556 2.3868065955710183
lfingers 7.125020000000001
lthumb 0.857276587902192 32.630337862005334
rclavicle 3.072379149893675e-16 -4.306781243394096e-16
rhumerus -35.86122619019314 9.310917750765801 -94.82076477745603
rradius 104.06824362182381
rwrist -19.406150610068973
rhand -18.494838595430846 37.61603589994977
rfingers 7.125020000000001
rthumb 7.78731372330454 7.319626684813559
62
root 0.4385008784394201 18.091496390025597 28.03752608055325 2.652716732349127 2.398022171529847 -3.1962676353729145
lfemur -32.400451840501 0.09519494508979232 -20.257434983413106
ltibia 47.74543682699398
lfoot 2.3754648544105135 -9.962126345415184
ltoes -11.04688373389983
rfemur -5.140436543479785 3.2834140228635063 31.201526419123617
rtibia 43.58775614293345
rfoot -5.155484205635538 -7.070294036494431
rtoes -2.2155692035548746
lowerback 13.212673279890708 1.584699132381738 5.431007096452114
upperback -0.37215542849031086 3.662555683135028 2.382575151699306
thorax -8.440198366575833 1.3716205492803253 -0.9910008544066351
lowerneck -18.21677215361643 -4.753807122887933 -2.254327462422168
upperneck 13.91118027890953 -6.322525863452405 3.068010087255276
head 7.382250063782275 -2.8739496267980895 0.6369716756345463
lclavicle 3.0724525846122443e-16 -4.306739325979878e-16
lhumerus -57.41474863529396 -11.433614130112792 97.94684779400345
lradius 110.83159225131772
lwrist 31.596281490690334
lhand -25.918330742632723 2.3367846081358885
lfingers 7.125020000000001
lthumb 0.8305136646629122 32.59193134144944
rclavicle 3.072379149893675e-16 -4.306781243394096e-16
rhumerus -35.472098987987884 9.731837760121934 -94.78229591012317
rradius 103.65187075324538
rwrist -19.416436732104312
rhand -18.465692265740103 37.62393121079708
rfingers 7.125020000000001
rthumb 7.768517012605338 7.3150848842214415
63
root 0.4544445395695089 18.155376854258755 28.929498138857213 2.7058007947900675 2.5529039354164658 -3.0946361666435536
lfemur -29.743168492597967 -0.22836568464493545 -20.463031723590877
ltibia 41.46179255702593
lfoot 1.6246067655339558 -10.420340133823943
ltoes -10.260870593265123
rfemur -4.7536099430223135 3.2061303599861306 30.43382852506585
rtibia 42.513001167924756
rfoot -1.0784970739017576 -6.4352729250678475
rtoes -3.060433112984639
lowerback 12.767744399066792 1.6643306437603158 5.438024217057169
upperback -0.5449414972649498 3.6352833271097653 2.161522922761293
thorax -8.335428233211179 1.3908107243638947 -1.1872295769035084
lowerneck -18.217872049525 -4.758234387618547 -2.2796139323730573
upperneck 13.891255244684345 -6.356157553081962 3.0843642693530144
head 7.373620918644986 -2.915589468150669 0.6530484987707645
lclavicle 3.0724525846122443e-16 -4.306739325979878e-16
lhumerus -56.33638307081823 -11.109319506372819 97.96082209795827
lradius 111.1025939092819
lwrist 31.559554623514757
lhand -25.923209561956572 2.4544098538762698
lfingers 7.125020000000001
lthumb 0.8073744433423978 32.59307414488443
rclavicle 3.072379149893675e-16 -4.306781243394096e-16
rhumerus -35.949720542515095 9.95016493735436 -94.92614939893615
rradius 103.26940885714421
rwrist -19.48192843233122
rhand -18.482328068353 37.608576850422956
rfingers 7.125020000000001
rthumb 7.787307951466711 7.350082440834969
64
root 0.4681050753767174 18.200747856625174 30.237346800734706 2.7354378885363584 2.7669837079560535 -2.9117636021135977
lfemur -29.48955294546241 -0.7122226441735069 -21.238867095274976
ltibia 36.72037046707283
lfoot 1.2195998761520987 -10.58604496908628
ltoes -9.523303561967365
rfemur -4.326321419663769 3.4323507340818846 30.256610361521922
rtibia 42.42540571220685
rfoot 2.126671759090733 -6.1491792282283475
rtoes -3.075262911885394
lowerback 12.393332142030612 1.7401163467800242 5.387335267335633
upperback -0.7118464545145375 3.521448394683029 1.9369917771363112
thorax -8.293390412063811 1.4227529736078242 -1.2895420611138184
lowerneck -18.218716529846887 -4.771740497202284 -2.3073080872027223
upperneck 13.925246863272234 -6.331964054735746 3.1379594040547936
head 7.371392904770428 -2.9460761579744044 0.6760543337230995
lclavicle 3.0724525846122443e-16 -4.306739325979878e-16
lhumerus -55.68530008349131 -10.960744426918572 97.90169177162494
lradius 111.01314570653284
lwrist 31.613986747178682
lhand -25.957052468315034 2.5282939896212238
lfingers 7.125020000000001
lthumb 0.8436792872442233 32.70357487033529
rclavicle 3.072379149893675e-16 -4.306781243394096e-16
rhumerus -35.810847427599235 10.305661511997009 -94.95809795376827
rradius 103.05959837169436
rwrist -19.561879000504167
rhand -18.430568672532655 37.65348220094346
rfingers 7.125020000000001
rthumb 7.769551432968339 7.341846339741339
